<svg width="10" height="11" viewBox="0 0 10 11" fill="none" xmlns="http://www.w3.org/2000/svg">
<path d="M2.17659 0.742796L1 1.48509L5.43673 6.25379C7.88796 8.86308 9.947 11 9.99603 11C10.0696 11 9.11358 9.24548 7.88796 7.10856C6.66235 4.99414 5.26515 2.49732 4.75039 1.59756C4.26014 0.720302 3.74538 -0.0219955 3.59831 0.000497818C3.47575 0.000497818 2.81391 0.337907 2.17659 0.742796Z" fill="white"/>
<path d="M0.5965 5.15456C-0.383395 6.36076 -0.520125 6.17519 3.05763 8.49481C6.88606 11 7 11.0696 7 10.9768C7 10.9304 5.6327 9.51544 3.96916 7.82212C1.14342 4.94579 0.915535 4.76022 0.5965 5.15456Z" fill="white"/>
</svg>
