<svg width="26" height="26" viewBox="0 0 26 26" fill="none" xmlns="http://www.w3.org/2000/svg">
<g id="Heart disease" clip-path="url(#clip0_37_616)">
<g id="Group">
<path id="Vector" d="M16.9271 12.9339L14.2779 17.8754L11.6149 11.7334L9.26168 15.9919L7.62449 13.8302H2.64844C4.26277 16.5216 7.5148 19.5385 13.0236 22.9875C18.5328 19.5385 21.7848 16.5216 23.3992 13.8302H17.6208L16.9271 12.9339Z" fill="white"/>
<path id="Vector_2" d="M9.06207 13.2048L11.7799 8.28456L14.4236 14.3808L16.6945 10.1437L18.3682 12.3069H24.1563C24.5158 11.3883 24.6814 10.5093 24.6814 9.66429C24.6814 5.99077 21.703 3.01245 18.0295 3.01245C16.0333 3.01245 14.2438 3.893 13.024 5.28542C11.8048 3.893 10.0152 3.01245 8.01902 3.01245C4.34551 3.01245 1.36719 5.99077 1.36719 9.66429C1.36719 10.5093 1.53273 11.3883 1.89227 12.3069H8.38211L9.06207 13.2048Z" fill="white"/>
<path id="Vector_3" d="M0 12.3069V13.8303H2.64977C2.33746 13.3103 2.08711 12.803 1.89312 12.3069H0Z" fill="white"/>
<path id="Vector_4" d="M24.159 12.3071C23.965 12.8033 23.7141 13.3106 23.4023 13.8306H26.0018V12.3071H24.159Z" fill="white"/>
</g>
</g>
<defs>
<clipPath id="clip0_37_616">
<rect width="26" height="26" fill="white"/>
</clipPath>
</defs>
</svg>
