<svg width="26" height="26" viewBox="0 0 26 26" fill="none" xmlns="http://www.w3.org/2000/svg">
<g id="Calendar" clip-path="url(#clip0_37_760)">
<g id="Group">
<g id="_x31_5_38_">
<g id="Group_2">
<path id="Vector" d="M6.35161 6.18343H6.72358C7.28888 6.18343 7.74712 5.72504 7.74712 5.1599V2.33537V1.27886C7.74712 0.713714 7.28888 0.255371 6.72358 0.255371H6.35161C5.78636 0.255371 5.32812 0.713714 5.32812 1.27886V2.33542V5.1599C5.32813 5.72504 5.78636 6.18343 6.35161 6.18343Z" fill="white"/>
<path id="Vector_2" d="M19.4806 6.15804H19.8526C20.4178 6.15804 20.8761 5.6997 20.8761 5.1345V2.06727V1.25341C20.8761 0.688324 20.4178 0.22998 19.8526 0.22998H19.4806C18.9153 0.22998 18.457 0.688324 18.457 1.25341V2.06727V5.13445C18.4571 5.6997 18.9154 6.15804 19.4806 6.15804Z" fill="white"/>
<path id="Vector_3" d="M24.3361 2.33533H21.7092V5.40251C21.7092 6.42567 20.8769 6.99001 19.8538 6.99001H19.4819C18.4587 6.99001 17.6264 6.15761 17.6264 5.13444V2.33533H8.58103V5.1598C8.58103 6.18297 7.74868 7.01537 6.72551 7.01537H6.35354C5.33043 7.01537 4.49808 6.18297 4.49808 5.1598V2.33533H1.66395C0.746463 2.33533 0 3.08179 0 3.99933V24.1061C0 25.0236 0.746463 25.7701 1.66395 25.7701H24.3361C25.2536 25.7701 26 25.0236 26 24.1061V3.99933C26.0001 3.08184 25.2536 2.33533 24.3361 2.33533ZM24.3361 24.1061H1.66401L1.66395 8.92198H24.3364L24.3373 24.106C24.3372 24.106 24.3369 24.1061 24.3361 24.1061Z" fill="white"/>
<path id="Vector_4" d="M13.859 14.0152H16.8467C16.9651 14.0152 17.0612 13.9192 17.0612 13.8007V11.2136C17.0612 11.0952 16.9651 10.9991 16.8467 10.9991H13.859C13.7406 10.9991 13.6445 11.0952 13.6445 11.2136V13.8007C13.6445 13.9192 13.7406 14.0152 13.859 14.0152Z" fill="white"/>
<path id="Vector_5" d="M18.734 14.0152H21.7217C21.8401 14.0152 21.9362 13.9192 21.9362 13.8007V11.2136C21.9362 11.0952 21.8401 10.9991 21.7217 10.9991H18.734C18.6156 10.9991 18.5195 11.0952 18.5195 11.2136V13.8007C18.5195 13.9192 18.6156 14.0152 18.734 14.0152Z" fill="white"/>
<path id="Vector_6" d="M4.10899 18.2507H7.09666C7.21509 18.2507 7.31112 18.1547 7.31112 18.0363V15.4491C7.31112 15.3306 7.21509 15.2346 7.09666 15.2346H4.10899C3.99055 15.2346 3.89453 15.3306 3.89453 15.4491V18.0363C3.89453 18.1547 3.99055 18.2507 4.10899 18.2507Z" fill="white"/>
<path id="Vector_7" d="M8.98399 18.2507H11.9717C12.0901 18.2507 12.1861 18.1547 12.1861 18.0363V15.4491C12.1861 15.3306 12.0901 15.2346 11.9717 15.2346H8.98399C8.86555 15.2346 8.76953 15.3306 8.76953 15.4491V18.0363C8.76953 18.1547 8.86555 18.2507 8.98399 18.2507Z" fill="white"/>
<path id="Vector_8" d="M13.859 18.2507H16.8467C16.9651 18.2507 17.0611 18.1547 17.0611 18.0363V15.4491C17.0611 15.3306 16.9651 15.2346 16.8467 15.2346H13.859C13.7406 15.2346 13.6445 15.3306 13.6445 15.4491V18.0363C13.6445 18.1547 13.7406 18.2507 13.859 18.2507Z" fill="white"/>
<path id="Vector_9" d="M18.734 18.2507H21.7217C21.8401 18.2507 21.9362 18.1547 21.9362 18.0363V15.4491C21.9362 15.3306 21.8401 15.2346 21.7217 15.2346H18.734C18.6156 15.2346 18.5195 15.3306 18.5195 15.4491V18.0363C18.5195 18.1547 18.6156 18.2507 18.734 18.2507Z" fill="white"/>
<path id="Vector_10" d="M7.09661 19.4701H4.10899C3.99055 19.4701 3.89453 19.5661 3.89453 19.6845V22.2717C3.89453 22.3902 3.99055 22.4862 4.10899 22.4862H7.09666C7.21509 22.4862 7.31112 22.3902 7.31112 22.2717V19.6845C7.31106 19.5661 7.21504 19.4701 7.09661 19.4701Z" fill="white"/>
<path id="Vector_11" d="M11.9717 19.4701H8.98399C8.86555 19.4701 8.76953 19.5661 8.76953 19.6845V22.2717C8.76953 22.3902 8.86555 22.4862 8.98399 22.4862H11.9717C12.0901 22.4862 12.1861 22.3902 12.1861 22.2717V19.6845C12.1861 19.5661 12.0901 19.4701 11.9717 19.4701Z" fill="white"/>
<path id="Vector_12" d="M16.8467 19.4701H13.859C13.7406 19.4701 13.6445 19.5661 13.6445 19.6845V22.2717C13.6445 22.3902 13.7406 22.4862 13.859 22.4862H16.8467C16.9651 22.4862 17.0612 22.3902 17.0612 22.2717V19.6845C17.0612 19.5661 16.9651 19.4701 16.8467 19.4701Z" fill="white"/>
<path id="Vector_13" d="M21.7217 19.4701H18.734C18.6156 19.4701 18.5195 19.5661 18.5195 19.6845V22.2717C18.5195 22.3902 18.6156 22.4862 18.734 22.4862H21.7217C21.8401 22.4862 21.9362 22.3902 21.9362 22.2717V19.6845C21.9362 19.5661 21.8401 19.4701 21.7217 19.4701Z" fill="white"/>
</g>
</g>
</g>
</g>
<defs>
<clipPath id="clip0_37_760">
<rect width="26" height="26" fill="white"/>
</clipPath>
</defs>
</svg>
