<svg width="40" height="40" viewBox="0 0 40 40" fill="none" xmlns="http://www.w3.org/2000/svg">
<g id="Peace">
<g id="Group">
<g id="Group_2">
<path id="Vector" d="M7.04283 24.4543L15.7987 15.6984L17.8902 17.7922C18.8763 18.7833 20.1888 19.3294 21.5856 19.3294C22.9824 19.3294 24.2949 18.7833 25.2814 17.7919C27.3102 15.7529 27.3102 12.4354 25.2814 10.3964L22.0021 7.10842L23.6311 5.67584C27.7288 2.08498 33.9616 2.49584 37.5524 6.5935C41.1433 10.6912 40.7324 16.924 36.6348 20.5148L34.2943 22.678L31.696 20.0797C30.1843 18.568 27.7245 18.568 26.2129 20.0797C25.492 20.8005 25.0908 21.7555 25.0785 22.773C24.1023 22.7855 23.13 23.1625 22.3869 23.9056C21.6434 24.6492 21.2663 25.6222 21.2543 26.5988C20.2776 26.6108 19.3046 26.9879 18.561 27.7315C17.0494 29.2432 17.0493 31.7029 18.561 33.2147L20.642 35.2956L18.882 36.9222C17.6814 37.9744 15.8551 37.854 14.8029 36.6533C13.7507 35.4526 13.8711 33.6263 15.0718 32.5742C13.8712 33.6264 12.0449 33.506 10.9927 32.3053C9.94056 31.1047 10.061 29.2783 11.2617 28.2262L11.2615 28.2261C10.0609 29.2783 8.23455 29.1579 7.18236 27.9572C6.28072 26.9283 6.33291 25.6293 7.04283 24.4543Z" fill="#449DD0"/>
</g>
<g id="Group_3">
<path id="Vector_2" d="M2.88942 5.25076C6.74208 1.39818 12.9883 1.39818 16.841 5.25076L23.6218 12.0495C24.4315 12.8634 24.6803 14.1162 24.2532 15.1801C23.7885 16.3376 22.5917 17.0787 21.348 16.9754C20.6622 16.9184 20.0161 16.6103 19.5344 16.1201L15.8015 12.3829L5.93567 22.2485L2.8895 19.2022C-0.963154 15.3497 -0.963154 9.10334 2.88942 5.25076Z" fill="#449DD0"/>
<g id="Group_4">
<path id="Vector_3" d="M31.2177 27.2483L27.8749 23.9055C27.5853 23.6159 27.4258 23.2308 27.4258 22.8212C27.4258 22.4116 27.5853 22.0266 27.8749 21.7369C28.1738 21.438 28.5666 21.2886 28.9592 21.2886C29.352 21.2886 29.7445 21.438 30.0435 21.737L33.3862 25.0797C33.9817 25.6752 33.9836 26.6426 33.3926 27.2412C33.3828 27.2508 33.3727 27.2599 33.3629 27.2694C33.076 27.545 32.7009 27.6974 32.3019 27.6974C31.8923 27.6974 31.5073 27.5379 31.2177 27.2483Z" fill="#449DD0"/>
<path id="Vector_4" d="M27.3895 31.0742L24.0467 27.7315C23.7571 27.4418 23.5977 27.0568 23.5977 26.6472C23.5977 26.2376 23.7572 25.8526 24.0467 25.5629C24.3364 25.2733 24.7214 25.1138 25.131 25.1138C25.5406 25.1138 25.9257 25.2733 26.2153 25.5629L29.558 28.9056C29.8477 29.1953 30.0072 29.5803 30.0072 29.9899C30.0072 30.3973 29.8492 30.7801 29.5627 31.0692C29.5563 31.0755 29.5498 31.0813 29.5434 31.0875C28.9444 31.6713 27.9827 31.6674 27.3895 31.0742Z" fill="#449DD0"/>
<path id="Vector_5" d="M23.5646 34.8999L20.2218 31.5573C19.624 30.9594 19.6239 29.9865 20.2218 29.3887C20.5115 29.0991 20.8965 28.9395 21.3061 28.9395C21.7157 28.9395 22.1008 29.099 22.3904 29.3886L25.7332 32.7313C26.0228 33.021 26.1823 33.406 26.1823 33.8156C26.1823 34.2241 26.0235 34.608 25.7354 34.8974C25.7323 34.9005 25.7291 34.9034 25.726 34.9064C25.1275 35.4973 24.1602 35.4955 23.5646 34.8999Z" fill="#449DD0"/>
</g>
</g>
</g>
</g>
</svg>
