<svg width="34" height="34" viewBox="0 0 34 34" fill="none" xmlns="http://www.w3.org/2000/svg">
<g id="Car collision">
<g id="Group">
<path id="Vector" d="M20.7124 9.19949L17.9178 12.8608L19.7068 8.58834C19.7512 8.3661 19.929 8.23832 20.0568 8.23832C20.1013 8.23832 20.1401 8.28277 20.229 8.32166L20.4902 8.44944L20.7513 8.57723C20.9791 8.72168 20.9346 8.93281 20.7124 9.19949ZM16.9233 13.2109L17.7067 7.06047C17.79 6.62711 17.6622 6.32153 17.3566 6.32153H16.9622C16.8788 6.32153 16.4844 6.32153 16.4844 6.32153C16.1788 6.32153 16.051 6.58266 16.1343 7.06047L16.9233 13.2109ZM18.0122 19.8779C18.2734 20.4891 18.3623 20.8836 18.3623 21.4447V26.545V27.2451C18.3623 27.4673 18.19 27.6785 17.9289 27.6785H15.6621C15.401 27.6785 15.2287 27.5062 15.2287 27.2451V26.545V25.8061H3.14464V26.545V27.2451C3.14464 27.4673 2.97241 27.6785 2.71128 27.6785H0.43336C0.172233 27.6785 0 27.5062 0 27.2451V26.545V21.4447C0 20.8724 0.0833385 20.4391 0.350022 19.8779L3.18353 13.9498C3.48911 13.2497 4.36138 12.6886 5.14476 12.6886H13.1675C13.9509 12.6886 14.8287 13.2609 15.1787 13.9498L18.0122 19.8779ZM2.52794 19.6224H15.7788L13.862 15.5277C13.4675 14.7443 13.123 14.5665 12.2952 14.5665H6.01704C5.88926 14.5665 5.79481 14.5665 5.71147 14.5665C5.10032 14.6498 4.79474 14.8721 4.49472 15.5277L2.52794 19.6224ZM4.36138 22.5837C4.36138 21.8003 3.70579 21.1891 2.9224 21.1891C2.13902 21.1891 1.52787 21.8003 1.52787 22.5837C1.52787 23.367 2.13902 24.0226 2.9224 24.0226C3.70579 24.0226 4.36138 23.3726 4.36138 22.5837ZM16.8288 22.5837C16.8288 21.8003 16.1732 21.1891 15.3898 21.1891C14.6065 21.1891 13.9953 21.8003 13.9953 22.5837C13.9953 23.367 14.6065 24.0226 15.3898 24.0226C16.1732 24.0282 16.8288 23.3726 16.8288 22.5837ZM15.9621 13.2497L14.1731 8.97725C14.0898 8.75502 13.9509 8.62723 13.8231 8.62723C13.7786 8.62723 13.7397 8.62723 13.6953 8.62723C13.6508 8.62723 13.6508 8.67168 13.612 8.67168L13.3508 8.79946L13.1286 8.9717C12.9064 9.09948 12.9564 9.32172 13.173 9.58285L15.9621 13.2497ZM33.8743 21.6225L32.5631 26.5506L32.3909 27.2062C32.3464 27.4284 32.0853 27.5562 31.8686 27.5117L29.6907 26.9395C29.4685 26.895 29.3407 26.6339 29.3852 26.4172L29.5574 25.7616L29.7796 25.0615L19.0067 22.1836V21.3558C19.0067 21.0057 18.9623 20.6168 18.879 20.2668C19.4512 20.2223 19.968 19.8334 20.1401 19.2168C20.3624 18.4778 19.879 17.6945 19.1345 17.4722C18.6567 17.3889 18.1733 17.5167 17.8233 17.8222L16.8177 15.7277C16.8621 15.6832 16.901 15.5999 16.9454 15.5554L21.2179 10.5829C21.6124 10.1051 22.2679 9.84397 22.8791 9.79953C23.1013 9.79953 23.2736 9.79953 23.4513 9.84397L31.0852 11.8052C31.8685 12.0274 32.5686 12.8108 32.6964 13.5498L33.9131 20.0057C34.0521 20.6613 34.0132 21.1058 33.8743 21.6225ZM32.002 19.3612L31.1742 14.9165C31.0019 14.0498 30.6964 13.7831 29.913 13.5609L23.8515 11.8997C23.5459 11.8163 23.3293 11.8163 23.1125 11.8163C22.7625 11.8608 22.457 12.0774 22.1069 12.4719L19.1401 15.911L32.002 19.3612ZM31.1742 20.7558C31.0908 20.7113 31.0019 20.7113 30.9131 20.7113C30.8241 20.7113 30.7408 20.7113 30.652 20.7113C30.0797 20.7558 29.6019 21.1447 29.4741 21.7614C29.2519 22.5003 29.6964 23.2836 30.4353 23.5059C31.1742 23.7281 31.9576 23.2448 32.1798 22.5003C32.3909 21.7503 31.9187 20.9669 31.1742 20.7558Z" fill="white"/>
</g>
</g>
</svg>
