<svg width="46" height="46" viewBox="0 0 46 46" fill="none" xmlns="http://www.w3.org/2000/svg">
<g id="On time">
<g id="Group">
<path id="Vector" d="M27.294 11.4639C20.933 11.4639 15.7578 16.639 15.7578 23C15.7578 29.361 20.933 34.5361 27.294 34.5361C33.655 34.5361 38.8301 29.361 38.8301 23C38.8301 16.639 33.655 11.4639 27.294 11.4639ZM32.7339 24.3476H25.9464V14.8879H28.6417V21.6523H32.7339V24.3476Z" fill="#449DD0"/>
<path id="Vector_2" d="M27.3461 4.2945C23.2421 4.28345 19.4455 5.59499 16.3565 7.82554H6.15645C4.54834 7.82554 3.2448 9.12917 3.2448 10.7372C3.2448 12.3453 4.54843 13.6489 6.15645 13.6489H11.0911C10.1509 15.2747 9.44914 17.0553 9.03163 18.9428H2.91166C1.30363 18.9429 0 20.2464 0 21.8546C0 23.4627 1.30363 24.7662 2.91166 24.7662H8.6728C8.84673 26.6232 9.29218 28.401 9.96906 30.0602H7.88936C6.28125 30.0602 4.9777 31.3638 4.9777 32.9718C4.9777 34.5799 6.28134 35.8835 7.88936 35.8835H13.7341C17.142 39.4693 21.9571 41.7051 27.2946 41.7051C37.6253 41.7052 46 33.3306 46 22.9999C46 12.6649 37.681 4.32235 27.3461 4.2945ZM27.2946 37.2312C19.4474 37.2312 13.0632 30.847 13.0632 22.9998C13.0632 15.1526 19.4474 8.76836 27.2946 8.76836C35.1418 8.76836 41.5261 15.1526 41.5261 22.9998C41.5261 30.847 35.1418 37.2312 27.2946 37.2312Z" fill="#449DD0"/>
</g>
</g>
</svg>
