<svg width="14" height="17" viewBox="0 0 14 17" fill="none" xmlns="http://www.w3.org/2000/svg">
<path d="M1.16502 1.28121C4.0859 0.222041 7.30782 0.355044 10.1331 1.65141C11.5648 2.31653 12.9999 3.55065 12.9127 5.11166C12.8394 6.41966 11.7108 7.42138 10.5446 8.03054C8.27365 9.20138 5.64371 9.474 3.17907 8.79403C2.66149 8.64906 2.07137 8.36465 2.00718 7.83539C1.93581 7.2491 2.55353 6.83478 3.09782 6.5994C4.63367 5.93496 6.6064 5.58437 7.85155 6.70846C9.05661 7.79624 8.90107 9.8557 7.84951 11.0787C6.79796 12.3016 5.11762 12.8147 3.49874 12.9479C2.81887 13.0041 1.86219 12.7119 1.98993 12.0477C2.07812 11.5875 2.64635 11.4232 3.11491 11.3653C4.16832 11.2356 5.47873 11.3136 5.96416 12.2536C6.4895 13.2712 5.80091 14.2141 4.52762 14.9512C3.53596 15.5253 1.95589 15.9813 1.3084 16.1355" stroke="#333333" stroke-width="1.06245" stroke-linecap="round" stroke-linejoin="round"/>
</svg>
