<svg width="30" height="30" viewBox="0 0 30 30" fill="none" xmlns="http://www.w3.org/2000/svg">
<g clip-path="url(#clip0_7_932)">
<path d="M29.4901 16.6636L28.7558 7.42044C28.6262 5.89516 27.1937 4.89825 25.7594 5.20467C24.597 5.45311 23.7714 6.49472 23.7963 7.68142C23.7963 7.68443 23.7964 7.68732 23.7965 7.69027L23.9631 12.9971C22.6903 12.595 21.2838 13.2722 20.7922 14.5419L19.8709 16.9189C19.7081 17.3394 19.3721 17.6648 18.9485 17.8121C17.1361 18.4437 15.7841 19.9478 15.3307 21.8365L15.0006 23.1155L14.6705 21.8365C14.2171 19.9478 12.8652 18.4437 11.0521 17.8119C10.6291 17.6648 10.2932 17.3394 10.1303 16.9188L9.20919 14.542C8.71746 13.2723 7.31056 12.5952 6.03815 12.9972L6.20469 7.69033C6.2048 7.68738 6.20491 7.68443 6.20497 7.68148C6.22982 6.49483 5.40427 5.45317 4.24162 5.20472C2.80346 4.89774 1.37449 5.89816 1.24482 7.42515L0.511168 16.6594C0.296244 19.2064 1.18249 21.7327 2.94271 23.5904C2.99643 23.6471 2.82989 23.5055 5.43081 25.6526C6.3322 26.3969 6.96863 27.3862 7.27142 28.5135C7.39224 28.9633 7.85238 29.2328 8.30463 29.1169L15.0004 27.3986L21.6963 29.1169C22.1486 29.2328 22.6087 28.9632 22.7295 28.5135C23.0323 27.3862 23.6688 26.3969 24.57 25.6527C27.1709 23.5056 27.0045 23.6471 27.0582 23.5904C28.8185 21.7327 29.7047 19.2064 29.4901 16.6636ZM8.65007 27.2715C8.19941 26.1328 7.47131 25.1307 6.51434 24.3405L4.14337 22.3832C2.73948 20.8808 2.03407 18.8498 2.20724 16.7984L2.94084 7.56446C2.98117 7.08884 3.42917 6.77102 3.88596 6.86875C4.25041 6.94663 4.50963 7.27154 4.50356 7.64217L4.26748 15.1625C4.22505 15.5539 4.27531 15.9632 4.42574 16.3511L6.07768 20.615C6.2474 21.0531 6.74004 21.2708 7.17845 21.101C7.61664 20.9312 7.83423 20.4384 7.66445 20.0003L6.0124 15.736C5.84342 15.3006 6.05965 14.7957 6.52046 14.6298C6.95479 14.4734 7.44908 14.7096 7.6222 15.1566L8.54332 17.5335C8.88695 18.4204 9.59758 19.1077 10.4924 19.4188C11.7381 19.8529 12.7055 20.9336 13.017 22.2391C13.0181 22.2442 13.0195 22.2492 13.0207 22.2543L13.9637 25.9079L8.65007 27.2715ZM25.8576 22.3832L23.4866 24.3406C22.5297 25.1307 21.8016 26.1329 21.3509 27.2715L16.0372 25.908L16.9802 22.2543C16.9814 22.2493 16.9827 22.2442 16.9839 22.2392C17.2954 20.9336 18.2628 19.8529 19.5078 19.4191C20.4033 19.1077 21.1139 18.4205 21.4575 17.5337L22.3788 15.1565C22.5518 14.7097 23.0459 14.4736 23.4804 14.6298C23.9331 14.7929 24.1609 15.2916 23.9884 15.7364L22.3364 20.0003C22.1667 20.4384 22.3843 20.9313 22.8224 21.1011C23.2607 21.2707 23.7535 21.0531 23.9232 20.6151L25.575 16.3514C25.7288 15.9548 25.7749 15.5454 25.7334 15.1625L25.4974 7.64217C25.4913 7.27154 25.7505 6.94663 26.1148 6.86881C26.5764 6.77028 27.0202 7.09428 27.0597 7.55981L27.794 16.8025C27.9669 18.8499 27.2615 20.8808 25.8576 22.3832Z" fill="#449DD0"/>
<path d="M14.3986 10.2114C14.7309 10.5437 15.2696 10.5437 15.6019 10.2114L20.1333 5.6804C21.4105 4.40363 21.4108 2.33681 20.1338 1.05963C18.8582 -0.216183 16.79 -0.217715 15.5127 1.0594L15.0003 1.57178L14.4879 1.05935C13.2108 -0.217544 11.1439 -0.217715 9.86674 1.05963C8.58991 2.33669 8.58991 4.40351 9.86725 5.6804L14.3986 10.2114ZM11.0701 2.26273C11.6819 1.6508 12.6726 1.65057 13.2846 2.26261L14.3987 3.3766C14.7309 3.70882 15.2697 3.70882 15.602 3.3766L16.716 2.26267C17.3273 1.65137 18.3185 1.65063 18.9305 2.26273C19.5424 2.87483 19.5424 3.8651 18.9302 4.47708L15.0003 8.40663L11.0705 4.47708C10.4584 3.86515 10.4581 2.87488 11.0701 2.26273Z" fill="#449DD0"/>
</g>
<defs>
<clipPath id="clip0_7_932">
<rect width="29.0422" height="29.0422" fill="white" transform="translate(0.479492 0.101658)"/>
</clipPath>
</defs>
</svg>
