<svg width="40" height="40" viewBox="0 0 40 40" fill="none" xmlns="http://www.w3.org/2000/svg">
<g id="Convenient" clip-path="url(#clip0_37_468)">
<g id="Group">
<path id="Vector" d="M29.0412 9.25156C26.492 9.25156 24.418 7.17641 24.418 4.62578C24.418 2.07508 26.492 0 29.0412 0C31.5904 0 33.6644 2.07508 33.6644 4.62578C33.6644 7.17641 31.5904 9.25156 29.0412 9.25156Z" fill="#449DD0"/>
<path id="Vector_2" d="M37.9821 6.51111L36.0337 4.84064C36.0056 5.76869 35.7959 6.65174 35.4391 7.45564L36.4391 8.31299C36.7694 8.59619 36.7377 8.95721 36.7087 9.09924C36.6798 9.24135 36.5677 9.58588 36.1528 9.71705L31.667 11.1356C31.6632 11.1291 31.659 11.1228 31.6552 11.1163C30.8477 11.4428 29.9659 11.623 29.0427 11.623C26.9261 11.623 25.0262 10.6775 23.7425 9.18682L20.6391 6.53666C20.2978 6.24518 20.3391 5.87471 20.3727 5.729C20.4062 5.58322 20.5312 5.23213 20.9656 5.11963L22.0513 4.83838C22.0492 4.76775 22.0478 4.69697 22.0478 4.6258C22.0478 3.80471 22.1904 3.01635 22.4513 2.28369L20.3712 2.8226C19.215 3.12213 18.3301 4.03158 18.0618 5.19596C17.7934 6.36049 18.1911 7.5658 19.0995 8.34158L22.6016 11.3323L20.2414 23.6625C20.107 24.3599 20.1475 25.0529 20.3304 25.6965L13.9748 24.419C13.5949 24.3427 13.2019 24.4568 12.9219 24.7246L5.24492 32.0684L3.60273 33.6393L2.92273 32.9589C2.45969 32.4956 1.70883 32.4956 1.24578 32.9589C0.782656 33.4223 0.782656 34.1735 1.24578 34.6368L2.7457 36.1375C3.20141 36.5935 3.93773 36.6017 4.40359 36.1561L6.92227 33.7467L14.0402 26.9377C13.8924 27.1356 13.8048 27.3812 13.8048 27.6471V35.2542V37.6271H12.5851C11.9302 37.6271 11.3993 38.1582 11.3993 38.8135C11.3993 39.4687 11.9302 39.9999 12.5851 39.9999H14.9906C15.6455 39.9999 16.1764 39.4687 16.1764 38.8135V35.2542V28.831L20.6342 28.8242C20.213 29.0063 19.918 29.4253 19.918 29.9136V38.8135C19.918 39.4688 20.4489 39.9999 21.1037 39.9999C21.7586 39.9999 22.2895 39.4688 22.2895 38.8135V31.1H31.4729V38.8135C31.4729 39.4688 32.0038 39.9999 32.6587 39.9999C33.3135 39.9999 33.8445 39.4688 33.8445 38.8135V14.3021C33.8445 13.7863 33.5148 13.3485 33.0554 13.1851L36.8675 11.9796C37.9882 11.6253 38.7975 10.7257 39.0324 9.57346C39.2673 8.42111 38.8746 7.27635 37.9821 6.51111ZM27.2574 28.7271C27.5134 28.6178 27.7616 28.4856 27.9989 28.3291C29.0364 27.6443 29.7452 26.5963 29.9948 25.3781C29.996 25.3723 29.9972 25.3664 29.9983 25.3606L31.4729 17.7212V28.7271H27.2574Z" fill="#449DD0"/>
</g>
</g>
<defs>
<clipPath id="clip0_37_468">
<rect width="40" height="40" fill="white"/>
</clipPath>
</defs>
</svg>
