<svg width="32" height="32" viewBox="0 0 32 32" fill="none" xmlns="http://www.w3.org/2000/svg">
<g clip-path="url(#clip0_7_884)">
<path d="M13.1873 9.68738C5.95019 9.68738 6.58184e-05 14.6641 6.58184e-05 20.7815C6.58184e-05 23.2268 0.948566 25.712 2.688 27.6382L0.231691 30.4451C-0.00999668 30.7216 -0.0686217 31.1144 0.0843158 31.4494C0.236316 31.7845 0.569566 31.9997 0.937566 31.9997H14.1248C19.4682 31.9997 26.3744 27.3984 26.3744 20.7815C26.3744 14.6641 20.4243 9.68738 13.1873 9.68738ZM7.49988 22.4999C6.46625 22.4999 5.62494 21.6585 5.62494 20.6249C5.62494 19.5913 6.46632 18.75 7.49988 18.75C8.53344 18.75 9.37482 19.5914 9.37482 20.6249C9.37488 21.6585 8.5335 22.4999 7.49988 22.4999ZM13.1873 22.4999C12.1536 22.4999 11.3123 21.6585 11.3123 20.6249C11.3123 19.5913 12.1537 18.75 13.1873 18.75C14.2208 18.75 15.0622 19.5914 15.0622 20.6249C15.0622 21.6585 14.2209 22.4999 13.1873 22.4999ZM18.8746 22.4999C17.841 22.4999 16.9997 21.6585 16.9997 20.6249C16.9997 19.5913 17.8411 18.75 18.8746 18.75C19.9082 18.75 20.7496 19.5914 20.7496 20.6249C20.7496 21.6585 19.9083 22.4999 18.8746 22.4999Z" fill="white"/>
<path d="M31.7719 19.0767L29.5646 16.5014C31.1402 14.7236 31.9981 12.5556 31.9981 10.3126C31.998 4.62643 26.5307 0.000366211 19.8108 0.000366211C13.7343 0.000366211 8.57172 3.78718 7.66016 8.71599C9.35566 8.13987 11.2571 7.81237 13.186 7.81237C21.3956 7.81237 28.1405 13.5464 28.239 20.6249H31.0606C31.8614 20.6249 32.2915 19.6819 31.7719 19.0767Z" fill="white"/>
</g>
<defs>
<clipPath id="clip0_7_884">
<rect width="32" height="32" fill="white"/>
</clipPath>
</defs>
</svg>
