<svg width="30" height="30" viewBox="0 0 30 30" fill="none" xmlns="http://www.w3.org/2000/svg">
<g clip-path="url(#clip0_7_942)">
<path d="M29.6008 28.0237L27.6827 22.2692C27.0855 20.4776 25.5692 19.1102 23.7256 18.7004L18.7085 17.5855V15.4319C20.8847 14.1842 22.354 11.8378 22.354 9.15464V5.63651C22.354 4.7839 22.0722 3.93867 21.5606 3.25652L21.5569 3.25153C20.9094 2.38957 18.8886 0.101643 15.1241 0.101643C11.3596 0.101643 9.33902 2.38804 8.69039 3.25153L8.68665 3.25652C8.17506 3.93867 7.89332 4.7839 7.89332 5.63651V9.15464C7.89332 11.8378 9.36256 14.1842 11.5387 15.4319V17.5855L6.52164 18.7004C4.67808 19.1102 3.16182 20.4776 2.56458 22.2692L0.646437 28.0237C0.497822 28.4695 0.738782 28.9514 1.18457 29.1C1.63047 29.2485 2.11222 29.0076 2.26083 28.5619L4.17898 22.8073C4.58824 21.5795 5.6274 20.6424 6.89085 20.3616L7.89337 20.1388V23.9364C6.83521 24.2927 6.07069 25.2936 6.07069 26.4703C6.07069 27.9445 7.27004 29.1439 8.74422 29.1439C10.2184 29.1439 11.4177 27.9445 11.4177 26.4703C11.4177 25.2936 10.6532 24.2927 9.59507 23.9364V19.7607L11.9734 19.2322L14.3941 23.2627C14.5478 23.519 14.8248 23.6758 15.1236 23.6758C15.4225 23.6758 15.6994 23.519 15.8532 23.2627L18.2718 19.2317L20.6522 19.7607V22.0757C19.806 22.2808 17.9182 23.2397 17.9182 25.5591V28.293C17.9182 28.7629 18.2991 29.1438 18.769 29.1438H19.6804C20.1503 29.1438 20.5312 28.7629 20.5312 28.293C20.5312 27.8231 20.1503 27.4422 19.6804 27.4422H19.6198V25.559C19.6198 24.5186 20.4617 23.6757 21.5031 23.6757C22.5415 23.6757 23.3863 24.5206 23.3863 25.559V27.4422H23.3258C22.8559 27.4422 22.4749 27.8231 22.4749 28.293C22.4749 28.7629 22.8559 29.1438 23.3258 29.1438H24.2371C24.707 29.1438 25.0879 28.7629 25.0879 28.293V25.559C25.0879 23.8754 23.9212 22.4599 22.3539 22.0769V20.1388L23.3564 20.3615C24.6199 20.6423 25.659 21.5795 26.0683 22.8073L27.9864 28.5618C28.1351 29.0075 28.6168 29.2484 29.0627 29.0999C29.5085 28.9514 29.7494 28.4696 29.6008 28.0237ZM9.716 26.4703C9.716 27.0061 9.28003 27.4422 8.74416 27.4422C8.2083 27.4422 7.77233 27.0061 7.77233 26.4703C7.77233 25.9344 8.2083 25.4984 8.74416 25.4984C9.28003 25.4984 9.716 25.9344 9.716 26.4703ZM9.59501 5.63651C9.59501 5.15119 9.75485 4.67012 10.0453 4.28117C10.0463 4.27986 10.0473 4.27856 10.0482 4.27725C10.5641 3.58949 12.1377 1.80333 15.132 1.80333C18.1133 1.80333 19.6917 3.60077 20.199 4.27725C20.2 4.27856 20.201 4.27986 20.202 4.28117C20.4924 4.67006 20.6523 5.15119 20.6523 5.63651V7.10053L19.4809 5.92926C19.3042 5.75251 19.1214 5.56975 18.7689 5.56975C18.6368 5.56975 18.5066 5.60049 18.3884 5.6596C16.3441 6.68174 13.9032 6.68174 11.8588 5.6596C11.5312 5.49567 11.1356 5.55993 10.8767 5.81899L9.59507 7.09928L9.59501 5.63651ZM9.59501 9.15464V8.97387C10.0837 8.83274 10.5318 8.57028 10.9016 8.20062C11.1544 7.94775 11.4374 7.66481 11.6625 7.43973C13.8688 8.35598 16.3784 8.3561 18.5848 7.43973L19.3458 8.20067C19.7155 8.57034 20.1635 8.83274 20.6523 8.97387V9.15464C20.6523 12.2031 18.1721 14.6833 15.1236 14.6833C12.0752 14.6833 9.59501 12.2031 9.59501 9.15464ZM17.0068 18.0325L15.1236 21.1711L13.2404 18.0324V16.1356C13.8411 16.2978 14.4724 16.3849 15.1236 16.3849C15.7749 16.3849 16.4061 16.2978 17.0068 16.1356V18.0325Z" fill="#449DD0"/>
</g>
<defs>
<clipPath id="clip0_7_942">
<rect width="29.0422" height="29.0422" fill="white" transform="translate(0.602539 0.101643)"/>
</clipPath>
</defs>
</svg>
