<svg width="40" height="40" viewBox="0 0 40 40" fill="none" xmlns="http://www.w3.org/2000/svg">
<g id="Map" clip-path="url(#clip0_37_425)">
<path id="Vector" d="M10.0287 21.2163H8.23486C7.76428 21.2163 7.33948 21.4965 7.15332 21.928L2.1875 33.4908L13.9807 27.4675C12.569 25.5141 11.1722 23.3596 10.0287 21.2163Z" fill="#449DD0"/>
<path id="Vector_2" d="M32.8439 21.928C32.6581 21.4965 32.233 21.2163 31.7627 21.2163H29.9689C27.8094 25.2629 24.6634 29.4448 22.662 31.7455C21.2546 33.3599 18.7405 33.358 17.3352 31.7455C17.1915 31.5804 16.441 30.7115 15.4074 29.3755L13.2812 30.4619L21.3239 38.489L36.5631 30.5886L32.8439 21.928Z" fill="#449DD0"/>
<path id="Vector_3" d="M0.737606 36.8699L0.0961263 38.3638C-0.235905 39.1368 0.332943 40.0001 1.17736 40.0001H18.447C18.555 39.9199 18.5562 39.9247 19.136 39.6241L11.0815 31.5864L0.737606 36.8699Z" fill="#449DD0"/>
<path id="Vector_4" d="M39.9048 38.3639L37.4951 32.7529L23.5156 40.0002H38.8235C39.6661 40.0002 40.2374 39.1384 39.9048 38.3639Z" fill="#449DD0"/>
<path id="Vector_5" d="M21.1771 10.572C21.1771 9.92438 20.6492 9.39795 20.0007 9.39795C19.3519 9.39795 18.8242 9.92438 18.8242 10.572C18.8242 11.2192 19.3519 11.746 20.0007 11.746C20.6492 11.746 21.1771 11.2192 21.1771 10.572Z" fill="#449DD0"/>
<path id="Vector_6" d="M20.8896 30.1264C21.2857 29.6717 30.5896 18.9093 30.5896 11.5113C30.5896 -3.74387 9.41406 -3.93002 9.41406 11.5113C9.41406 18.9093 18.718 29.6717 19.1141 30.1264C19.5831 30.6644 20.4214 30.6638 20.8896 30.1264ZM16.4725 10.5722C16.4725 8.6301 18.0557 7.0502 20.0018 7.0502C21.9476 7.0502 23.5309 8.6301 23.5309 10.5722C23.5309 12.5141 21.9476 14.094 20.0018 14.094C18.0557 14.094 16.4725 12.5141 16.4725 10.5722Z" fill="#449DD0"/>
</g>
<defs>
<clipPath id="clip0_37_425">
<rect width="40" height="40" fill="white"/>
</clipPath>
</defs>
</svg>
