<svg width="22" height="23" viewBox="0 0 22 23" fill="none" xmlns="http://www.w3.org/2000/svg">
<g id="&#227;&#130;&#176;&#227;&#131;&#171;&#227;&#131;&#188;&#227;&#131;&#151; 4">
<g id="&#227;&#131;&#145;&#227;&#130;&#185; 14">
<path d="M1.125 5.35205C2.37438 8.61889 3.94043 13.32 5.18981 16.5868L1.125 5.35205Z" fill="white"/>
<path d="M1.125 5.35205C2.37438 8.61889 3.94043 13.32 5.18981 16.5868" stroke="#333333" stroke-linecap="round" stroke-linejoin="round"/>
</g>
<g id="&#227;&#131;&#145;&#227;&#130;&#185; 15">
<path d="M4.73828 6.38867C6.47616 11.0279 8.04273 15.7282 9.78069 20.3677L4.73828 6.38867Z" fill="white"/>
<path d="M4.73828 6.38867C6.47616 11.0279 8.04273 15.7282 9.78069 20.3677" stroke="#333333" stroke-linecap="round" stroke-linejoin="round"/>
</g>
<g id="&#227;&#131;&#145;&#227;&#130;&#185; 16">
<path d="M6.71854 2.96697C8.83071 8.65877 10.8102 14.7923 12.9219 20.4842L6.71854 2.96697Z" fill="white"/>
<path d="M6.71854 2.96697C8.83071 8.65877 10.8102 14.7923 12.9219 20.4842" stroke="#333333" stroke-linecap="round" stroke-linejoin="round"/>
</g>
<g id="&#227;&#131;&#145;&#227;&#130;&#185; 17">
<path d="M9.92332 2.99663C11.8318 8.37447 13.569 13.813 15.4776 19.1905L9.92332 2.99663Z" fill="white"/>
<path d="M9.92332 2.99663C11.8318 8.37447 13.569 13.813 15.4776 19.1905" stroke="#333333" stroke-linecap="round" stroke-linejoin="round"/>
</g>
<g id="&#227;&#131;&#145;&#227;&#130;&#185; 18">
<path d="M12.3233 0.976108C13.5794 4.63181 16.3925 12.7258 17.6484 16.3818L12.3233 0.976108Z" fill="white"/>
<path d="M12.3233 0.976108C13.5794 4.63181 16.3925 12.7258 17.6484 16.3818" stroke="#333333" stroke-linecap="round" stroke-linejoin="round"/>
</g>
<g id="&#227;&#131;&#145;&#227;&#130;&#185; 19">
<path d="M15.4233 1.04086C16.4093 3.69031 19.0357 11.4372 20.0218 14.0877L15.4233 1.04086Z" fill="white"/>
<path d="M15.4233 1.04086C16.4093 3.69031 19.0357 11.4372 20.0218 14.0877" stroke="#333333" stroke-linecap="round" stroke-linejoin="round"/>
</g>
</g>
</svg>
