<svg width="22" height="21" viewBox="0 0 22 21" fill="none" xmlns="http://www.w3.org/2000/svg">
<path d="M9.40601 8.73557C8.13578 9.84229 6.40823 11.0904 4.54599 11.318C4.13091 11.3915 3.70443 11.3686 3.29955 11.2508C2.88953 11.1316 2.51292 10.9184 2.19966 10.6282L2.1908 10.62L2.18234 10.6113C1.45584 9.86994 1.36028 8.79698 1.37367 7.98677L1.37272 7.98442L1.3757 7.87958C1.38387 7.59183 1.50889 7.3418 1.72423 7.17904C1.92648 7.02617 2.16917 6.97904 2.38249 6.99774C2.80274 7.03458 3.29466 7.36648 3.2773 7.98515L3.277 7.99619L3.2762 8.00719C3.25045 8.36328 3.29643 8.72092 3.41141 9.05894L3.41502 9.06954L3.4149 9.06958C3.45386 9.19313 3.5368 9.29786 3.64768 9.3641C3.77275 9.42046 3.90872 9.44874 4.04601 9.44685C4.29336 9.44077 4.53872 9.40097 4.77532 9.32857C5.4464 9.11785 6.08352 8.81134 6.66699 8.41851L6.67613 8.41236L6.6762 8.41246C7.87023 7.64624 9.02603 6.67915 9.77341 5.53031L9.92453 5.08739L10.0775 5.16533C10.1836 5.08628 10.3048 5.0328 10.4344 5.00757C10.6645 4.96277 10.8872 5.01287 11.0652 5.10799C11.3365 5.25297 11.5841 5.55851 11.59 5.93757L11.7358 6.01215L11.5011 6.36797C11.3698 6.76524 11.2574 7.18055 11.2177 7.58343C11.1751 8.01571 11.2197 8.40003 11.3851 8.72171C11.5167 8.93208 11.6951 9.10938 11.9064 9.23978L11.6437 9.66527L11.9064 9.23978C12.1222 9.373 12.3663 9.45355 12.6191 9.47493L12.6346 9.47624L12.6499 9.47852C14.1791 9.70432 15.9117 9.08302 17.1527 8.09078L17.3961 7.78626L17.4962 7.87695C17.8577 7.74536 18.2353 7.87515 18.4655 8.07749C18.6163 8.20996 18.7428 8.40049 18.7819 8.63218C18.8039 8.76228 18.7962 8.89439 18.7589 9.02119L18.8857 9.13612L18.4882 9.4606C17.5257 10.6012 16.6728 11.8301 15.9409 13.1311C15.6493 13.694 15.3876 14.3231 15.2918 14.933C15.1965 15.5391 15.27 16.0857 15.5979 16.5413C15.9567 17.0397 15.7436 17.5901 15.4232 17.8607C15.2601 17.9984 15.034 18.1007 14.7791 18.0906C14.5069 18.0797 14.262 17.9421 14.0938 17.7085L14.0937 17.7085C12.9139 16.0695 13.3598 14.105 14.0887 12.591C14.3134 12.1235 14.5659 11.6734 14.8371 11.2372C13.5385 11.5334 12.0255 11.5731 10.7936 10.7952L9.40601 8.73557ZM9.40601 8.73557C9.56441 9.53137 9.9766 10.2795 10.7934 10.7951L9.40601 8.73557Z" fill="#449DD0" stroke="white"/>
</svg>
