<svg width="40" height="40" viewBox="0 0 40 40" fill="none" xmlns="http://www.w3.org/2000/svg">
<g id="Doctor" clip-path="url(#clip0_37_447)">
<path id="Vector" d="M39.6509 37.9581C39.6509 32.7145 37.609 27.7853 33.9014 24.0778C32.9005 23.0768 31.8101 22.1985 30.6489 21.4478V28.5043C31.9083 28.9926 32.8043 30.2164 32.8043 31.6461C32.8043 33.5037 31.2931 35.015 29.4355 35.015C27.5779 35.015 26.067 33.5037 26.067 31.6461C26.067 30.181 27.0075 28.9319 28.3161 28.4695V20.1569C28.0265 20.0217 27.7335 19.8935 27.4375 19.7729C27.2083 19.9481 26.9727 20.1154 26.731 20.2744L21.1875 28.0676V40H39.6509V37.9581ZM23.9475 36.2726C23.2938 36.2726 22.8095 35.7382 22.7814 35.1062C22.7531 34.4763 23.3378 33.9398 23.9475 33.9398C24.6015 33.9398 25.0855 34.4742 25.1139 35.1062C25.1423 35.7361 24.5576 36.2726 23.9475 36.2726Z" fill="#449DD0"/>
<path id="Vector_2" d="M13.3218 20.282C13.0762 20.1208 12.8369 19.9509 12.6038 19.7729C12.4323 19.8428 12.2614 19.9149 12.0917 19.9896V28.1897C14.65 28.7735 16.5649 31.0657 16.5649 33.7979V35.8502H14.2325V33.7979C14.2325 31.9116 12.6978 30.3769 10.8115 30.3769C8.92487 30.3769 7.39014 31.9116 7.39014 33.7979V35.9741H5.05737V33.7979C5.05737 30.9848 7.0874 28.6383 9.75922 28.1424V21.2167C8.46039 22.0163 7.24548 22.9724 6.14014 24.0778C2.43256 27.7853 0.390625 32.7148 0.390625 37.9581V40H18.8538V28.0661L13.3218 20.282Z" fill="#449DD0"/>
<path id="Vector_3" d="M22.6404 21.999C21.7957 22.184 20.9189 22.2825 20.0192 22.2825C19.1211 22.2825 18.2458 22.1843 17.4023 21.9999L20.0195 25.6843L22.6404 21.999Z" fill="#449DD0"/>
<path id="Vector_4" d="M29.4345 30.6099C28.8632 30.6099 28.3984 31.075 28.3984 31.6459C28.3984 32.2175 28.8632 32.6823 29.4345 32.6823C30.0058 32.6823 30.4706 32.2172 30.4706 31.6459C30.4706 31.0746 30.0058 30.6099 29.4345 30.6099Z" fill="#449DD0"/>
<path id="Vector_5" d="M20.0182 19.8721C25.4971 19.8721 29.9545 15.415 29.9545 9.93622C29.9545 4.4574 25.4971 0 20.0182 0C14.5397 0 10.082 4.4574 10.082 9.93622C10.082 15.415 14.5394 19.8721 20.0182 19.8721Z" fill="#449DD0"/>
</g>
<defs>
<clipPath id="clip0_37_447">
<rect width="40" height="40" fill="white"/>
</clipPath>
</defs>
</svg>
