<svg width="42" height="42" viewBox="0 0 42 42" fill="none" xmlns="http://www.w3.org/2000/svg">
<g id="Medical records" clip-path="url(#clip0_37_512)">
<g id="Group">
<path id="Vector" d="M20.0663 11.5414L21.7605 14.9297H36.1758V10.6641H28.3828C26.7997 10.6641 25.5117 9.37609 25.5117 7.79297V0H7.05469C6.37514 0 5.82422 0.550922 5.82422 1.23047V8.36719H14.9303C17.1193 8.36719 19.0874 9.58347 20.0663 11.5414Z" fill="#449DD0"/>
<path id="Vector_2" d="M28.3828 8.20302H35.455L27.9727 0.720703V7.79286C27.9727 8.01902 28.1567 8.20302 28.3828 8.20302Z" fill="#449DD0"/>
<path id="Vector_3" d="M22.2305 27.2344V24.3633H19.7695V27.2344C19.7695 27.9139 19.2186 28.4648 18.5391 28.4648H15.668V30.9258H18.5391C19.2186 30.9258 19.7695 31.4767 19.7695 32.1562V35.0273H22.2305V32.1562C22.2305 31.4767 22.7814 30.9258 23.4609 30.9258H26.332V28.4648H23.4609C22.7814 28.4648 22.2305 27.9139 22.2305 27.2344Z" fill="#449DD0"/>
<path id="Vector_4" d="M38.7188 17.3906H21C20.5339 17.3906 20.1078 17.1273 19.8994 16.7104L17.8652 12.6419C17.3094 11.5303 16.1732 10.8281 14.9303 10.8281H3.28125C1.4691 10.8281 0 12.2972 0 14.1094V38.7188C0 40.5309 1.4691 42 3.28125 42H38.7188C40.5309 42 42 40.5309 42 38.7188V20.6719C42 18.8597 40.5309 17.3906 38.7188 17.3906ZM28.793 32.1562C28.793 32.8358 28.242 33.3867 27.5625 33.3867H24.6914V36.2578C24.6914 36.9374 24.1405 37.4883 23.4609 37.4883H18.5391C17.8595 37.4883 17.3086 36.9374 17.3086 36.2578V33.3867H14.4375C13.758 33.3867 13.207 32.8358 13.207 32.1562V27.2344C13.207 26.5548 13.758 26.0039 14.4375 26.0039H17.3086V23.1328C17.3086 22.4533 17.8595 21.9023 18.5391 21.9023H23.4609C24.1405 21.9023 24.6914 22.4533 24.6914 23.1328V26.0039H27.5625C28.242 26.0039 28.793 26.5548 28.793 27.2344V32.1562Z" fill="#449DD0"/>
<path id="Vector_5" d="M38.6367 10.1562V14.9295H38.7188C39.9381 14.9295 41.0691 15.3127 42 15.9634V14.5193C42 12.4284 40.57 10.6655 38.6367 10.1562Z" fill="#449DD0"/>
</g>
</g>
<defs>
<clipPath id="clip0_37_512">
<rect width="42" height="42" fill="white"/>
</clipPath>
</defs>
</svg>
