<svg width="40" height="40" viewBox="0 0 40 40" fill="none" xmlns="http://www.w3.org/2000/svg">
<g id="First aid kit" clip-path="url(#clip0_37_382)">
<g id="Group">
<path id="_x3C_Compound_Path_x3E__5_" d="M34.2994 7.92295H30.6942V5.70463C30.6942 2.56438 28.1284 0 24.9922 0H15.0118C11.877 0 9.30585 2.56438 9.30585 5.70463V7.92295H5.70598C2.56303 7.92295 0 10.094 0 13.2301V34.2967C0 37.4329 2.56303 40 5.70598 40H34.2994C37.4356 40 40 37.4343 40 34.2967V13.2301C40 10.094 37.4356 7.92295 34.2994 7.92295ZM12.3636 5.70463C12.3636 4.3028 13.6127 3.05509 15.0118 3.05509H24.9922C26.3859 3.05509 27.6377 4.30416 27.6377 5.70463V7.92295H12.3636V5.70463ZM29.1666 27.7797H23.0551V33.8912H16.9463V27.7797H10.8361V20.1419H16.9476V14.0345H23.0564V20.1419H29.168L29.1666 27.7797Z" fill="#449DD0"/>
</g>
</g>
<defs>
<clipPath id="clip0_37_382">
<rect width="40" height="40" fill="white"/>
</clipPath>
</defs>
</svg>
