<svg width="10" height="11" viewBox="0 0 10 11" fill="none" xmlns="http://www.w3.org/2000/svg">
<path d="M7.82341 0.742796L9 1.48509L4.56327 6.25379C2.11204 8.86308 0.0529995 11 0.00397491 11C-0.069562 11 0.886419 9.24548 2.11204 7.10856C3.33765 4.99414 4.73485 2.49732 5.24961 1.59756C5.73986 0.720302 6.25462 -0.0219955 6.40169 0.000497818C6.52425 0.000497818 7.18609 0.337907 7.82341 0.742796Z" fill="white"/>
<path d="M9.4035 5.15456C10.3834 6.36076 10.5201 6.17519 6.94237 8.49481C3.11394 11 3 11.0696 3 10.9768C3 10.9304 4.3673 9.51544 6.03084 7.82212C8.85658 4.94579 9.08446 4.76022 9.4035 5.15456Z" fill="white"/>
</svg>
