<svg width="30" height="30" viewBox="0 0 30 30" fill="none" xmlns="http://www.w3.org/2000/svg">
<g clip-path="url(#clip0_7_921)">
<path d="M26.2742 4.08717H3.48087C1.75813 4.08717 0.356445 5.48885 0.356445 7.21159V23.0847C0.356445 24.8075 1.75813 26.2092 3.48087 26.2092H26.2742C27.997 26.2092 29.3986 24.8075 29.3986 23.0847V7.21159C29.3986 5.48885 27.997 4.08717 26.2742 4.08717ZM27.697 23.0847C27.697 23.8691 27.0586 24.5075 26.2742 24.5075H3.48087C2.69649 24.5075 2.05814 23.8691 2.05814 23.0847V7.21159C2.05814 6.42722 2.69649 5.78887 3.48087 5.78887H26.2742C27.0586 5.78887 27.697 6.42722 27.697 7.21159V23.0847Z" fill="#449DD0"/>
<path d="M14.878 12.5956H12.3112V10.0431C12.3112 9.57312 11.9303 9.19224 11.4604 9.19224H8.04282C7.57286 9.19224 7.19198 9.57312 7.19198 10.0431V12.5956H4.62526C4.1553 12.5956 3.77441 12.9765 3.77441 13.4465V16.8498C3.77441 17.3198 4.1553 17.7007 4.62526 17.7007H7.19198V20.2532C7.19198 20.7232 7.57286 21.1041 8.04282 21.1041H11.4604C11.9303 21.1041 12.3112 20.7232 12.3112 20.2532V17.7007H14.878C15.3479 17.7007 15.7288 17.3198 15.7288 16.8498V13.4465C15.7288 12.9765 15.3479 12.5956 14.878 12.5956ZM14.0271 15.999H11.4604C10.9904 15.999 10.6095 16.3799 10.6095 16.8498V19.4024H8.89367V16.8498C8.89367 16.3799 8.51278 15.999 8.04282 15.999H5.47611V14.2973H8.04282C8.51278 14.2973 8.89367 13.9164 8.89367 13.4465V10.8939H10.6095V13.4465C10.6095 13.9164 10.9904 14.2973 11.4604 14.2973H14.0271V15.999Z" fill="#449DD0"/>
<path d="M25.1284 9.19225H18.2932C17.8233 9.19225 17.4424 9.57313 17.4424 10.0431C17.4424 10.5131 17.8233 10.8939 18.2932 10.8939H25.1284C25.5983 10.8939 25.9792 10.5131 25.9792 10.0431C25.9792 9.57313 25.5983 9.19225 25.1284 9.19225Z" fill="#449DD0"/>
<path d="M25.1284 12.5956H18.2932C17.8233 12.5956 17.4424 12.9765 17.4424 13.4465C17.4424 13.9164 17.8233 14.2973 18.2932 14.2973H25.1284C25.5983 14.2973 25.9792 13.9164 25.9792 13.4465C25.9792 12.9765 25.5983 12.5956 25.1284 12.5956Z" fill="#449DD0"/>
<path d="M25.1284 15.999H18.2932C17.8233 15.999 17.4424 16.3799 17.4424 16.8498C17.4424 17.3198 17.8233 17.7007 18.2932 17.7007H25.1284C25.5983 17.7007 25.9792 17.3198 25.9792 16.8498C25.9792 16.3799 25.5983 15.999 25.1284 15.999Z" fill="#449DD0"/>
<path d="M23.4196 19.4024H18.2932C17.8233 19.4024 17.4424 19.7833 17.4424 20.2532C17.4424 20.7232 17.8233 21.1041 18.2932 21.1041H23.4196C23.8895 21.1041 24.2704 20.7232 24.2704 20.2532C24.2704 19.7833 23.8895 19.4024 23.4196 19.4024Z" fill="#449DD0"/>
</g>
<defs>
<clipPath id="clip0_7_921">
<rect width="29.0422" height="29.0422" fill="white" transform="translate(0.356445 0.627045)"/>
</clipPath>
</defs>
</svg>
