<svg width="34" height="34" viewBox="0 0 34 34" fill="none" xmlns="http://www.w3.org/2000/svg">
<g clip-path="url(#clip0_37_492)">
<path d="M29.0851 14.2675C29.1259 9.47396 25.0432 5.07952 19.984 4.47184C19.8834 4.45991 19.7738 4.44175 19.6578 4.42253C19.4073 4.38104 19.1483 4.33838 18.887 4.33838C17.8501 4.33838 17.5729 5.06674 17.4999 5.50114C17.429 5.9235 17.4967 6.27817 17.7008 6.55577C18.0441 7.02269 18.6483 7.10558 19.1336 7.17199C19.2758 7.19163 19.4101 7.2099 19.5224 7.23514C24.0678 8.25081 25.5984 9.84765 26.3464 14.3544C26.3646 14.4646 26.3729 14.6003 26.3816 14.7442C26.4143 15.2829 26.4823 16.4037 27.6873 16.4037H27.6874C27.7877 16.4037 27.8955 16.3951 28.0077 16.378C29.1298 16.2074 29.0947 15.1829 29.0778 14.6906C29.073 14.552 29.0685 14.4209 29.0802 14.3336C29.0834 14.3117 29.085 14.2896 29.0851 14.2675Z" fill="#449DD0"/>
<path d="M18.5926 2.7124C18.7272 2.72211 18.8547 2.7314 18.9608 2.74766C26.4248 3.89553 29.8575 7.43196 30.8087 14.9544C30.8249 15.0823 30.8274 15.2382 30.8301 15.4034C30.8396 15.9911 30.8591 17.2137 32.1721 17.2391L32.2129 17.2395C32.6247 17.2395 32.9522 17.1153 33.1865 16.8701C33.5952 16.4426 33.5667 15.8075 33.5437 15.297C33.5381 15.1718 33.5327 15.0539 33.5341 14.9506C33.629 7.2571 26.9695 0.280658 19.2828 0.0212236C19.2509 0.0201677 19.2205 0.0218571 19.1898 0.0261863C19.1747 0.0284037 19.1467 0.0311491 19.0988 0.0311491C19.0221 0.0311491 18.9278 0.0244969 18.8278 0.0177391C18.7069 0.0095031 18.5699 0 18.4309 0C17.2068 0 16.9741 0.870062 16.9443 1.38872C16.8757 2.58738 18.0353 2.67175 18.5926 2.7124Z" fill="#449DD0"/>
<path d="M30.4478 24.6765C30.2891 24.5553 30.125 24.4298 29.9714 24.3061C29.1564 23.6503 28.2894 23.0458 27.4509 22.4611C27.2769 22.3399 27.1029 22.2186 26.9295 22.0969C25.8555 21.3425 24.8898 20.9759 23.9775 20.9759C22.7488 20.9759 21.6775 21.6548 20.7933 22.9936C20.4015 23.5871 19.9263 23.8757 19.3406 23.8757C18.9942 23.8757 18.6007 23.7769 18.171 23.5818C14.7042 22.0097 12.2286 19.5993 10.813 16.4175C10.1287 14.8797 10.3505 13.8745 11.5549 13.0564C12.2388 12.5922 13.5118 11.7281 13.4216 10.0733C13.3195 8.19409 9.17319 2.53985 7.4262 1.89765C6.68654 1.62565 5.9094 1.62312 5.1122 1.89131C3.10387 2.56646 1.66267 3.75213 0.944028 5.31993C0.249563 6.83483 0.280923 8.6136 1.03473 10.464C3.2139 15.8138 6.2777 20.4781 10.1413 24.3272C13.9232 28.0951 18.5713 31.1815 23.9566 33.5003C24.442 33.7092 24.9512 33.8231 25.323 33.9062C25.4497 33.9347 25.5591 33.959 25.6388 33.9809C25.6826 33.9928 25.7278 33.9992 25.7731 33.9997L25.8157 33.9999C25.8157 33.9999 25.8157 33.9999 25.8159 33.9999C28.3488 33.9999 31.3901 31.6853 32.3241 29.0467C33.1424 26.7361 31.6483 25.5941 30.4478 24.6765Z" fill="#449DD0"/>
<path d="M19.713 8.82368C19.2793 8.83466 18.3769 8.85704 18.0602 9.77621C17.9121 10.2057 17.9298 10.5787 18.113 10.8847C18.3818 11.3337 18.8969 11.4712 19.3654 11.5467C21.0644 11.8194 21.937 12.7589 22.1116 14.5033C22.1927 15.3166 22.7404 15.8846 23.4436 15.8846C23.4956 15.8846 23.5488 15.8815 23.6017 15.8751C24.4474 15.7745 24.8575 15.1531 24.8204 14.0283C24.8339 12.8545 24.2196 11.5218 23.1748 10.4603C22.1264 9.39555 20.8626 8.79591 19.713 8.82368Z" fill="#449DD0"/>
<g clip-path="url(#clip1_37_492)">
<path d="M18.2154 20L27.7483 10.4671C28.0839 10.1315 28.0839 9.58731 27.7483 9.25172C27.4127 8.91614 26.8685 8.91609 26.5329 9.25172L17 18.7847L7.46709 9.25172C7.13146 8.91609 6.58731 8.91609 6.25172 9.25172C5.91614 9.58735 5.91609 10.1315 6.25172 10.4671L15.7846 20L6.25172 29.5329C5.91609 29.8686 5.91609 30.4127 6.25172 30.7483C6.41951 30.9161 6.63947 31 6.85943 31C7.07938 31 7.2993 30.9161 7.46713 30.7483L17 21.2154L26.5329 30.7483C26.7007 30.9161 26.9206 31 27.1406 31C27.3606 31 27.5805 30.9161 27.7483 30.7483C28.0839 30.4127 28.0839 29.8685 27.7483 29.5329L18.2154 20Z" fill="#5C5C5C"/>
</g>
</g>
<defs>
<clipPath id="clip0_37_492">
<rect width="34" height="34" fill="white"/>
</clipPath>
<clipPath id="clip1_37_492">
<rect width="22" height="22" fill="white" transform="translate(6 9)"/>
</clipPath>
</defs>
</svg>
